<svg xmlns="http://www.w3.org/2000/svg" width="130" height="117.536" viewBox="0 0 130 117.536">
  <g id="stepdrive_dark_logo" transform="translate(-116.716 -335)">
    <text id="StepDrive" transform="translate(116.716 449.536)" fill="#fff" font-size="12" font-family="Geometos" letter-spacing="0.62em"><tspan x="0" y="0">StepDrive</tspan></text>
    <g id="Group_340" data-name="Group 340" transform="translate(130.998 335)">
      <path id="Union_2" data-name="Union 2" d="M0,88.018V69.861H48.245l-32.84-31.11v-.225H0V.148A.127.127,0,0,1,.129.021H63.766a.128.128,0,0,1,.108.107h.006V0A50.208,50.208,0,0,1,81.685,3.8a47.9,47.9,0,0,1,15.108,9.979,45.564,45.564,0,0,1,7.88,10.3,42.811,42.811,0,0,1,2.206,4.542,42.3,42.3,0,0,1,3.226,17.4,41.811,41.811,0,0,1-4.162,17.052A43.335,43.335,0,0,1,95.4,76.819a45.3,45.3,0,0,1-14.794,8.6,46.6,46.6,0,0,1-16.731,2.56,46.08,46.08,0,0,0,16.376-3.532,43.787,43.787,0,0,0,13.772-9.135,40.731,40.731,0,0,0,9.129-13.495,38.256,38.256,0,0,0,2.854-15.8,37.8,37.8,0,0,0-3.8-15.354,39.3,39.3,0,0,0-9.585-12.412,41.188,41.188,0,0,0-13.5-7.773,42.5,42.5,0,0,0-15.242-2.3V18.04a.126.126,0,0,1-.127.127H15.415L48.476,49.492h15.4V88.018Z" transform="translate(0)" fill="#fff"/>
      <path id="Path_87" data-name="Path 87" d="M359.273,100.938c-1.316-.972-2.635-1.939-3.961-2.886s-2.661-1.878-4.007-2.8-2.61-1.975-3.921-2.964a22.2,22.2,0,0,0-2.047-1.357,19.293,19.293,0,0,0-2.19-1.075,30.391,30.391,0,0,0-4.724-1.536,21.188,21.188,0,0,0-5.24-.636l-.332.589a20.836,20.836,0,0,0,3.225,4.176,30.706,30.706,0,0,0,3.751,3.265,19.385,19.385,0,0,0,2.047,1.326,20.153,20.153,0,0,0,2.2,1.018c1.535.62,3.071,1.167,4.549,1.858s2.974,1.351,4.463,2.012,3,1.289,4.514,1.924c3.025,1.243,6.044,2.5,9.125,3.643l.337-.583C364.518,104.854,361.9,102.893,359.273,100.938ZM338.321,92.32a.6.6,0,1,0,0-.005Z" transform="translate(-269.155 -43.88)" fill="#fff"/>
    </g>
  </g>
</svg>
